# xmcd
#
# Track frame offsets:
# 150
# 13023
# 32256
# 50143
# 63118
# 77282
# 88976
# 112572
# 121654
# 137213
# 158166
# 173616
# 192455
# 211500
#
# Disc length: 3167 seconds
#
#
# Revision: 0
# Processed by: cddbd v1.5.2PL0 Copyright (c) Steve Scherf et al.
# Submitted via: FreeRIP 2.951 
#
DISCID=a20c5d0e
DTITLE=Mos Def - Tru3 Magic
DYEAR=2006
DGENRE=Hip-Hop
TTITLE0=True Magic
TTITLE1=Undeniable
TTITLE2=U R the One
TTITLE3=Thug Is a Drug
TTITLE4=Crime and Medicine
TTITLE5=Ha
TTITLE6=Dollar Day
TTITLE7=Napoleon Dynamite
TTITLE8=There Is a Way
TTITLE9=Sun, Moon, Stars
TTITLE10=Murder of a Teenage Life
TTITLE11=Fake Bonanza
TTITLE12=Perfect Timing
TTITLE13=Lifetime
EXTD=
EXTT0=
EXTT1=
EXTT2=
EXTT3=
EXTT4=
EXTT5=
EXTT6=
EXTT7=
EXTT8=
EXTT9=
EXTT10=
EXTT11=
EXTT12=
EXTT13=
PLAYORDER=
